# xmcd CD database file
#
# Track frame offsets:
#	150
#	20335
#	36235
#	55535
#	76100
#	89262
#	107177
#	118060
#	134232
#	159535
#	169780
#	191852
#
# Disc length: 2788 seconds
#
# Revision: 0
# Processed by: cddbd v1.4PL0 Copyright (c) Steve Scherf et al.
# Submitted via: CDex 1.50Beta7
#
DISCID=9e0ae20c
DTITLE=Sidh F. Tepperwein - The Beauty of the Sleeping Forest
DYEAR=1900
DGENRE=New Age
TTITLE0=Innocent Dance
TTITLE1=The Wizard's Waltz
TTITLE2=Sunday Afternoon Affait
TTITLE3=The Gypsy's charm
TTITLE4=Sentiment
TTITLE5=As I lay sleeping
TTITLE6=Feuer  und Eis
TTITLE7=Sweet Springtime
TTITLE8=Virgin Spirit
TTITLE9=Heilende Hände
TTITLE10=The Leaving of the Enchanted Forest
TTITLE11=Full Moon Delight
EXTD=
EXTT0=
EXTT1=
EXTT2=
EXTT3=
EXTT4=
EXTT5=
EXTT6=
EXTT7=
EXTT8=
EXTT9=
EXTT10=
EXTT11=
PLAYORDER=
